<svg width="349" height="102" viewBox="0 0 349 102" fill="none" xmlns="http://www.w3.org/2000/svg">
<path d="M324.8 17.0312C325.347 17.0312 326.18 17.0833 327.3 17.1875C328.42 17.2656 329.552 17.3698 330.698 17.5C331.844 17.6042 332.729 17.7083 333.354 17.8125H348.784V25.1953L342.729 27.4219C343.146 28.1771 343.459 28.9974 343.667 29.8828C343.875 30.7682 343.979 31.7057 343.979 32.6953C343.979 37.4609 342.3 41.1589 338.94 43.7891C335.607 46.4192 330.62 47.7344 323.979 47.7344C322.339 47.7344 321.037 47.6302 320.073 47.4219C319.891 47.7604 319.748 48.099 319.644 48.4375C319.565 48.75 319.526 49.0495 319.526 49.3359C319.526 49.9349 319.878 50.4167 320.581 50.7812C321.31 51.1198 322.183 51.3542 323.198 51.4844C324.24 51.6146 325.23 51.6797 326.167 51.6797H333.511C338.485 51.6797 342.209 52.7214 344.683 54.8047C347.157 56.888 348.394 60.026 348.394 64.2188C348.394 69.6094 346.089 73.8021 341.479 76.7969C336.896 79.7916 330.451 81.2891 322.144 81.2891C315.868 81.289 311.024 80.2344 307.612 78.125C304.227 76.0417 302.534 73.0338 302.534 69.1016C302.534 66.4714 303.355 64.2969 304.995 62.5781C306.636 60.8594 309.097 59.6224 312.378 58.8672C311.024 58.2943 309.839 57.3697 308.823 56.0938C307.834 54.8177 307.339 53.5547 307.339 52.3047C307.339 50.9245 307.717 49.7135 308.472 48.6719C309.227 47.6042 310.802 46.3411 313.198 44.8828C310.907 43.8672 309.097 42.2786 307.769 40.1172C306.466 37.9557 305.815 35.3255 305.815 32.2266C305.815 29.0235 306.545 26.289 308.003 24.0234C309.487 21.7579 311.636 20.026 314.448 18.8281C317.287 17.6302 320.737 17.0313 324.8 17.0312ZM321.323 63.5938C320.23 63.5938 319.227 63.763 318.315 64.1016C317.43 64.4661 316.727 64.948 316.206 65.5469C315.685 66.1458 315.425 66.823 315.425 67.5781C315.425 68.8281 316.102 69.8307 317.456 70.5859C318.81 71.3672 320.62 71.7578 322.886 71.7578C324.735 71.7578 326.597 71.5885 328.472 71.25C330.347 70.9375 331.922 70.4166 333.198 69.6875C334.474 68.9583 335.112 67.9948 335.112 66.7969C335.112 65.8854 334.735 65.1953 333.979 64.7266C333.224 64.2839 332.248 63.9844 331.05 63.8281C329.852 63.6719 328.589 63.5938 327.261 63.5938H321.323ZM23.9844 17.0312C29.5833 17.0312 33.9583 18.4245 37.1094 21.2109C40.2604 23.9714 41.8359 27.9167 41.8359 33.0469V62.0703H31.25L28.3203 56.2109H28.0078C26.7578 57.7734 25.4688 59.0495 24.1406 60.0391C22.8385 61.0026 21.3411 61.7057 19.6484 62.1484C17.9557 62.6172 15.8854 62.8516 13.4375 62.8516C10.8854 62.8516 8.59375 62.3307 6.5625 61.2891C4.53125 60.2474 2.92969 58.6719 1.75781 56.5625C0.585938 54.4531 0 51.7839 0 48.5547C0 43.8151 1.64062 40.2995 4.92188 38.0078C8.20312 35.7161 12.9557 34.4271 19.1797 34.1406L26.5625 33.9062V33.2812C26.5625 31.3021 26.0677 29.8958 25.0781 29.0625C24.1146 28.2292 22.8125 27.8125 21.1719 27.8125C19.4271 27.8125 17.474 28.125 15.3125 28.75C13.1771 29.349 11.0286 30.1302 8.86719 31.0938L4.45312 21.0156C7.00521 19.7135 9.89583 18.724 13.125 18.0469C16.3542 17.3698 19.974 17.0312 23.9844 17.0312ZM155.428 17.0312C161.027 17.0312 165.402 18.4246 168.553 21.2109C171.704 23.9714 173.279 27.9167 173.279 33.0469V62.0703H162.693L159.764 56.2109H159.451C158.201 57.7733 156.912 59.0495 155.584 60.0391C154.282 61.0025 152.784 61.7058 151.092 62.1484C149.399 62.6171 147.329 62.8516 144.881 62.8516C142.329 62.8515 140.037 62.3307 138.006 61.2891C135.975 60.2474 134.373 58.6718 133.201 56.5625C132.029 54.4532 131.443 51.7838 131.443 48.5547C131.443 43.8152 133.084 40.2995 136.365 38.0078C139.646 35.7162 144.399 34.4271 150.623 34.1406L158.006 33.9062V33.2812C158.006 31.3021 157.511 29.8958 156.521 29.0625C155.558 28.2293 154.256 27.8125 152.615 27.8125C150.871 27.8125 148.917 28.125 146.756 28.75C144.621 29.3489 142.472 30.1303 140.311 31.0938L135.896 21.0156C138.448 19.7136 141.339 18.724 144.568 18.0469C147.797 17.3698 151.417 17.0313 155.428 17.0312ZM107.05 17.0312C112.102 17.0312 115.956 18.3204 118.612 20.8984C121.295 23.4766 122.636 27.6042 122.636 33.2812V62.0703H107.362V38.0078C107.362 34.6484 106.907 32.3177 105.995 31.0156C105.11 29.6876 103.782 29.0234 102.011 29.0234C99.5369 29.0235 97.818 30.1042 96.8545 32.2656C95.917 34.4271 95.4482 37.487 95.4482 41.4453V62.0703H80.1357V38.0078C80.1357 35.8724 79.9404 34.1536 79.5498 32.8516C79.1852 31.5235 78.6253 30.5599 77.8701 29.9609C77.1149 29.336 76.1643 29.0234 75.0186 29.0234C73.2739 29.0235 71.9065 29.5573 70.917 30.625C69.9535 31.6667 69.2764 33.2032 68.8857 35.2344C68.4951 37.2656 68.2998 39.7526 68.2998 42.6953V62.0703H53.0264V17.8125H64.5498L66.7764 23.2812H67.2061C67.9873 22.0834 68.99 21.0156 70.2139 20.0781C71.4638 19.1407 72.9353 18.3984 74.6279 17.8516C76.3466 17.3047 78.2999 17.0313 80.4873 17.0312C83.7424 17.0312 86.4248 17.5782 88.5342 18.6719C90.6435 19.7656 92.3623 21.2761 93.6904 23.2031H94.1592C95.5654 21.224 97.3754 19.7005 99.5889 18.6328C101.802 17.5651 104.289 17.0313 107.05 17.0312ZM216.893 27.2656L201.044 48.1611C202.18 48.1037 203.375 48.0703 204.609 48.0703C212.065 48.0703 218.109 49.1896 218.109 50.5703C218.109 50.7673 217.985 50.9568 217.752 51.1406V62.0703H217.623C213.221 57.1845 206.562 54.0703 199.109 54.0703C191.942 54.0703 185.509 56.951 181.111 61.5176V53.3594L199.432 29.4922H182.166V17.8125H216.893V27.2656ZM241.169 62.0703H225.896V17.8125H241.169V62.0703ZM280.328 17.0312C284.885 17.0312 288.609 18.3203 291.5 20.8984C294.391 23.4766 295.836 27.6042 295.836 33.2812V62.0703H280.562V37.9297C280.562 34.987 280.133 32.7734 279.273 31.2891C278.44 29.7786 277.086 29.0234 275.211 29.0234C272.32 29.0234 270.38 30.2083 269.391 32.5781C268.401 34.9219 267.906 38.2943 267.906 42.6953V62.0703H252.633V17.8125H264.156L266.227 23.6719H266.812C267.75 22.2656 268.87 21.0677 270.172 20.0781C271.474 19.0885 272.971 18.3333 274.664 17.8125C276.357 17.2917 278.245 17.0312 280.328 17.0312ZM23.125 42.4609C20.3125 42.5651 18.3333 43.0599 17.1875 43.9453C16.0677 44.8047 15.5078 46.0417 15.5078 47.6562C15.5078 49.1667 15.9115 50.2865 16.7188 51.0156C17.526 51.7188 18.5938 52.0703 19.9219 52.0703C21.7708 52.0703 23.3464 51.4844 24.6484 50.3125C25.9766 49.1406 26.6406 47.6172 26.6406 45.7422V42.3047L23.125 42.4609ZM154.568 42.4609C151.756 42.5651 149.777 43.0599 148.631 43.9453C147.511 44.8047 146.951 46.0418 146.951 47.6562C146.951 49.1665 147.355 50.2865 148.162 51.0156C148.969 51.7187 150.037 52.0702 151.365 52.0703C153.214 52.0703 154.79 51.4842 156.092 50.3125C157.42 49.1406 158.084 47.6172 158.084 45.7422V42.3047L154.568 42.4609ZM324.956 25.5078C323.368 25.5079 322.183 26.0808 321.401 27.2266C320.62 28.3464 320.229 30.0391 320.229 32.3047C320.229 34.5703 320.62 36.276 321.401 37.4219C322.183 38.5416 323.368 39.1015 324.956 39.1016C326.414 39.1016 327.534 38.5416 328.315 37.4219C329.123 36.3021 329.526 34.6224 329.526 32.3828C329.526 30.0911 329.149 28.3724 328.394 27.2266C327.638 26.0808 326.492 25.5078 324.956 25.5078ZM233.591 0C235.778 2.75499e-05 237.679 0.455757 239.294 1.36719C240.934 2.27867 241.755 4.08862 241.755 6.79688C241.755 9.427 240.934 11.2109 239.294 12.1484C237.679 13.0599 235.778 13.5156 233.591 13.5156C231.351 13.5156 229.437 13.0598 227.849 12.1484C226.286 11.2109 225.505 9.42708 225.505 6.79688C225.505 4.08854 226.286 2.27865 227.849 1.36719C229.437 0.455786 231.351 0 233.591 0Z" fill="black"/>
<path d="M23.0194 70.4574C22.1286 69.4025 20.5513 69.2694 19.4964 70.1602C18.4415 71.051 18.3085 72.6284 19.1993 73.6833L21.1094 72.0703L23.0194 70.4574ZM200.609 64.5703L172.806 72.3349L193.432 92.5313L200.609 64.5703ZM21.1094 72.0703L19.1993 73.6833C23.8765 79.2221 33.6608 84.7179 45.9978 89.3233C58.4636 93.9768 73.9444 97.8698 90.4339 99.98C123.283 104.184 160.785 101.387 186.352 82.6566L184.875 80.6399L183.397 78.6232C159.381 96.2174 123.471 99.1672 91.0686 95.0205C74.9323 92.9555 59.8276 89.149 47.7465 84.6391C35.5367 80.0811 26.8129 74.9496 23.0194 70.4574L21.1094 72.0703Z" fill="#FFA500"/>
</svg>
