<svg width="188" height="59" viewBox="0 0 188 59" fill="none" xmlns="http://www.w3.org/2000/svg">
<path d="M160.721 0C165.434 4.74893e-05 169.666 0.846402 173.416 2.53906C177.192 4.23176 180.239 6.54956 182.557 9.49219C184.9 12.4348 186.255 15.7813 186.619 19.5312L186.658 19.9219H181.286C181.179 17.0857 180.137 14.4851 178.72 12.2969C175.89 8.00237 171.629 4.94308 166.776 3.48047C163.554 2.52113 160.033 2.62195 156.777 3.46777C151.621 4.7562 147.387 8.31977 144.543 12.373C143.306 14.1227 142.289 15.8803 141.357 17.7891L141.351 17.8057C139.277 22.1224 137.92 27.0131 138.266 32.0684C138.688 39.3751 142.994 46.0929 148.702 50.1357C153.785 53.7155 160.105 55.8433 166.647 54.3867C167.726 54.1164 168.818 53.7149 169.838 53.1484C173.568 51.1108 176.943 48.1141 179.057 44.3125C181.17 40.5282 182.296 36.2213 182.297 31.8828V29.3828H161.541V25.7812H187.322V33.3984C187.322 37.2525 186.736 40.7292 185.564 43.8281C184.393 46.9009 182.674 49.5313 180.408 51.7188C178.169 53.8801 175.434 55.5339 172.205 56.6797C168.976 57.8255 165.317 58.3984 161.229 58.3984C156.749 58.3984 152.752 57.7603 149.236 56.4844C145.721 55.1823 142.739 53.2942 140.291 50.8203C137.843 48.3203 135.968 45.2604 134.666 41.6406C133.39 37.9948 132.752 33.8281 132.752 29.1406V29.1016C132.752 22.9297 133.872 17.6823 136.111 13.3594C138.377 9.0105 141.593 5.7031 145.76 3.4375C149.952 1.14594 154.94 0 160.721 0ZM4.79688 27.3828L8.79688 23.3828V1.01562H16.0156V22.0312H16.3281C17.0052 20.2083 17.9557 18.6458 19.1797 17.3438C20.4036 16.0417 21.849 15.0521 23.5156 14.375C25.2083 13.6719 27.0833 13.3203 29.1406 13.3203C32.7604 13.3203 35.8203 14.1927 38.3203 15.9375C40.8464 17.6562 42.7604 20.1953 44.0625 23.5547C45.3906 26.888 46.0547 30.9635 46.0547 35.7812V35.8203C46.0547 40.612 45.3906 44.6875 44.0625 48.0469C42.7604 51.3802 40.8464 53.9323 38.3203 55.7031C35.8203 57.4479 32.7865 58.3203 29.2188 58.3203C27.1354 58.3203 25.2344 57.9948 23.5156 57.3438C21.8229 56.6667 20.3646 55.7161 19.1406 54.4922C17.9167 53.2422 16.9792 51.7448 16.3281 50H16.0156V57.3828H9.79688V41.7783C11.3835 43.2876 12.9803 44.7665 14.6445 46.1953C19.4063 50.3959 27.1993 54.8642 34.3926 50.6553C38.731 48.3803 42.2881 43.4121 42.3213 38.0312C42.4655 32.6894 39.9338 27.7657 36.418 24.2607C29.9751 17.9582 20.8361 20.4158 14.8779 23.4697C12.7654 24.5224 10.7852 25.8177 8.97363 27.3389C5.95705 29.8916 2.98737 32.4507 0 34.9883V1.01562H4.79688V27.3828ZM106.365 13.3203C110.376 13.3203 113.878 13.9454 116.873 15.1953C119.868 16.4192 122.199 18.1381 123.865 20.3516C125.532 22.5651 126.365 25.1302 126.365 28.0469V37.0889C125.797 37.5092 125.208 37.9336 124.641 38.335C119.526 41.9265 114.058 45.1464 108.325 47.5605C105.358 48.7948 102.195 49.6683 99.1523 49.9385C97.6536 50.0658 96.1564 50.0201 95.043 49.6807C94.4862 49.5131 94.0818 49.276 93.8516 49.041C93.6235 48.8024 93.5331 48.6041 93.4277 48.2559C93.0081 47.067 92.781 45.9277 92.7988 45.0215C92.408 41.1387 100.21 38.8226 106.456 38.1963C107.582 38.0648 108.721 37.9619 109.865 37.8818C109.82 36.2158 109.774 34.5498 109.729 32.8838C108.504 32.8684 107.273 32.8848 106.038 32.9414C102.436 33.1253 98.7791 33.5435 95.0615 34.9092C91.5703 36.0658 86.7064 39.6122 86.7998 44.9346C86.7758 47.0452 87.3943 48.9129 88.167 50.5098C89.23 53.0284 92.1293 54.4866 94.2012 54.5938C96.3515 54.7922 98.1654 54.4064 99.8896 53.9551C103.329 53.0036 106.39 51.6072 109.482 50.3281C115.234 47.9044 120.805 45.1671 126.365 42.3975V57.3828H120.797V46.3828L116.797 49.085V57.3828H110.35V51.5234H110.037C109.23 52.8775 108.24 54.0365 107.068 55C105.923 55.9634 104.594 56.6927 103.084 57.1875C101.574 57.6822 99.8937 57.9297 98.0449 57.9297C95.1545 57.9296 92.6021 57.3567 90.3887 56.2109C88.2013 55.0651 86.4824 53.5155 85.2324 51.5625C84.0085 49.5834 83.3965 47.3567 83.3965 44.8828V44.8438C83.3965 42.0574 84.0867 39.7005 85.4668 37.7734C86.873 35.8464 88.9045 34.3359 91.5605 33.2422C94.2167 32.1224 97.4592 31.4323 101.287 31.1719L110.35 30.5684V28.8281C110.35 27.5781 109.946 26.5885 109.139 25.8594C108.331 25.1303 107.107 24.7656 105.467 24.7656C103.826 24.7657 102.55 25.0782 101.639 25.7031C100.727 26.3281 100.18 27.0834 99.998 27.9688L99.9199 28.3594H94.7979C94.805 25.5963 96.0439 23.7196 97.9385 22.5049C99.922 21.2334 102.71 20.6523 105.644 20.8779C108.568 21.1028 111.418 22.1145 113.49 23.7617C115.395 25.2756 116.635 27.3059 116.782 29.8643L116.797 30.3838V41.3828L120.797 38.4688V30.3828C120.797 26.1875 118.822 22.8899 115.979 20.6299C113.176 18.4024 109.526 17.1647 105.95 16.8896C102.383 16.6153 98.6718 17.2841 95.7803 19.1377C92.8113 21.041 90.8044 24.1479 90.7969 28.3594H85.623L85.6621 27.8516C85.8965 24.9089 86.8471 22.3567 88.5137 20.1953C90.2063 18.0079 92.5503 16.3151 95.5449 15.1172C98.5657 13.9193 102.173 13.3203 106.365 13.3203ZM16.6602 27.0508C22.1647 24.2464 28.921 24.9089 32.1758 28.5039C37.6961 33.6302 39.0582 42.723 32.2012 47.1113C27.7925 50.5228 21.163 47.9932 16.5977 43.918C14.9998 42.5468 13.5766 40.949 12.3447 39.2148C11.3853 37.8627 10.533 36.4154 9.83105 34.9307C9.81982 34.9387 9.80811 34.9461 9.79688 34.9541V34.7832L7.79297 36.3848C7.11605 36.8681 6.43953 37.3525 5.7627 37.8359C5.79485 37.8683 5.82721 37.9003 5.85938 37.9326L5.29688 38.3828V57.3828H0V41.2598C0.550661 40.7259 1.10297 40.1935 1.65527 39.6631C4.92799 36.5265 8.25845 33.3917 11.6201 30.4268C13.1392 29.0959 14.8467 27.9537 16.6602 27.0508ZM77.6748 13.3203C78.3518 13.3203 79.016 13.3724 79.667 13.4766C80.318 13.5807 80.9431 13.737 81.542 13.9453V17.9004C80.6406 17.9691 79.785 18.1133 78.957 18.2979C74.7286 19.297 71.0574 21.123 67.6201 23.4287C65.3744 24.9818 63.2334 26.795 61.5908 29.2949C56.8257 37.8014 57.8373 46.6115 57.3633 54.9199C57.3419 55.7428 57.3202 56.5609 57.2969 57.3828H51.7764V14.2578H67.792V21.9922H68.1045C68.6514 19.1797 69.7322 17.0312 71.3467 15.5469C72.9873 14.0625 75.0968 13.3203 77.6748 13.3203ZM79.7402 22.9121C80.3599 22.8493 80.9698 22.8319 81.542 22.8662V27.4219C80.865 27.1355 80.1227 26.914 79.3154 26.7578C78.5342 26.6016 77.7268 26.5234 76.8936 26.5234C74.8884 26.5235 73.2086 26.862 71.8545 27.5391C70.5004 28.2161 69.4847 29.2318 68.8076 30.5859C68.1306 31.914 67.792 33.5808 67.792 35.5859V57.3828H62.2969C62.2736 56.5576 62.2505 55.7391 62.2285 54.9189C62.1426 46.7296 61.3957 37.8112 65.0039 31.4707C66.1393 29.6727 67.9309 28.0637 69.876 26.7314C72.8329 24.7255 76.3575 23.2785 79.7402 22.9121ZM157.894 7.82715C160.348 7.1962 162.935 7.55283 165.358 8.27539C169.042 9.36461 172.459 11.8485 174.524 15.0176C175.531 16.5647 176.18 18.2807 176.281 19.9219H170.369L170.252 19.5312C169.679 17.6564 168.559 16.1849 166.893 15.1172C165.226 14.0495 163.194 13.5157 160.799 13.5156C158.455 13.5156 156.45 14.1017 154.783 15.2734C153.117 16.4453 151.84 18.1771 150.955 20.4688C150.07 22.7604 149.627 25.5729 149.627 28.9062V28.9453C149.627 31.4974 149.9 33.763 150.447 35.7422C151.02 37.7213 151.827 39.388 152.869 40.7422C153.937 42.0963 155.2 43.125 156.658 43.8281C158.142 44.5311 159.796 44.8828 161.619 44.8828C163.416 44.8828 165.005 44.6093 166.385 44.0625C167.765 43.4896 168.885 42.6692 169.744 41.6016C170.603 40.5339 171.124 39.2577 171.307 37.7734L171.385 37.1875H161.541V34.3828H177.14C176.813 37.0044 175.979 39.5714 174.691 41.874C173.011 44.8958 170.761 47.6989 167.755 49.6172C167.144 50.0143 166.43 50.3177 165.674 50.5068C160.987 51.6067 155.62 49.3243 151.732 46.1592C147.231 42.5291 144.576 37.1632 144.252 31.6621C143.986 27.8163 144.706 23.8233 146.242 19.959L146.235 19.9746C146.935 18.2552 147.708 16.6899 148.678 15.1836C150.907 11.686 154.055 8.78934 157.894 7.82715ZM103.943 39.9609C102.251 40.0651 101.001 40.4428 100.193 41.0938C99.4123 41.7448 99.0215 42.6043 99.0215 43.6719V43.7109C99.0215 44.8306 99.4644 45.6901 100.35 46.2891C101.235 46.888 102.42 47.1874 103.904 47.1875C105.18 47.1875 106.3 46.9791 107.264 46.5625C108.227 46.1198 108.982 45.5207 109.529 44.7656C110.076 44.0104 110.35 43.1641 110.35 42.2266V39.5088L103.943 39.9609ZM22.9297 26.2109C21.5495 26.2109 20.3385 26.5885 19.2969 27.3438C18.2552 28.099 17.4479 29.1927 16.875 30.625C16.3021 32.0573 16.0156 33.7891 16.0156 35.8203V35.8594C16.0156 37.8646 16.3021 39.5833 16.875 41.0156C17.4479 42.4479 18.2422 43.5417 19.2578 44.2969C20.2995 45.0521 21.5234 45.4297 22.9297 45.4297C24.3359 45.4297 25.5469 45.0391 26.5625 44.2578C27.6042 43.4766 28.3984 42.3698 28.9453 40.9375C29.5182 39.5052 29.8047 37.7995 29.8047 35.8203V35.7812C29.8047 33.776 29.5182 32.0573 28.9453 30.625C28.3724 29.1927 27.5651 28.099 26.5234 27.3438C25.5078 26.5885 24.3099 26.2109 22.9297 26.2109Z" fill="#00B14F"/>
</svg>
