<svg width="301" height="62" viewBox="0 0 301 62" fill="none" xmlns="http://www.w3.org/2000/svg">
<path d="M27.5391 15.5078C25.7161 15.5078 24.0885 15.8984 22.6562 16.6797C21.224 17.4349 20 18.5417 18.9844 20C17.9688 21.4583 17.1875 23.2422 16.6406 25.3516C16.1198 27.4349 15.8594 29.8047 15.8594 32.4609C15.8594 36.0547 16.3151 39.0755 17.2266 41.5234C18.138 43.9714 19.5182 45.8203 21.3672 47.0703C23.2422 48.3203 25.5859 48.9453 28.3984 48.9453C30.9505 48.9453 33.3984 48.5938 35.7422 47.8906C38.112 47.1875 40.4948 46.3411 42.8906 45.3516V58.3984C40.3646 59.5182 37.7734 60.3255 35.1172 60.8203C32.487 61.3151 29.6875 61.5625 26.7188 61.5625C20.5208 61.5625 15.4427 60.3385 11.4844 57.8906C7.55208 55.4167 4.64844 51.9922 2.77344 47.6172C0.924479 43.2422 0 38.1641 0 32.3828C0 28.0599 0.598958 24.1016 1.79688 20.5078C3.02083 16.9141 4.80469 13.8021 7.14844 11.1719C9.49219 8.51562 12.3828 6.47135 15.8203 5.03906C19.2839 3.58073 23.2422 2.85156 27.6953 2.85156C30.4557 2.85156 33.3594 3.17708 36.4062 3.82812C39.4792 4.45312 42.474 5.46875 45.3906 6.875L40.6641 19.0234C38.5807 18.0339 36.4714 17.2005 34.3359 16.5234C32.2005 15.8464 29.9349 15.5078 27.5391 15.5078ZM69.2375 60.7812H53.9641V0H69.2375V60.7812ZM122.889 38.5547C122.889 42.2526 122.381 45.5339 121.366 48.3984C120.35 51.263 118.879 53.6719 116.952 55.625C115.024 57.5781 112.694 59.0625 109.959 60.0781C107.225 61.0677 104.139 61.5625 100.702 61.5625C97.4984 61.5625 94.5557 61.0677 91.8734 60.0781C89.2172 59.0625 86.8995 57.5781 84.9203 55.625C82.9411 53.6719 81.4047 51.263 80.3109 48.3984C79.2432 45.5339 78.7094 42.2526 78.7094 38.5547C78.7094 33.6589 79.5948 29.5182 81.3656 26.1328C83.1625 22.7474 85.7146 20.1693 89.0219 18.3984C92.3552 16.6276 96.3266 15.7422 100.936 15.7422C105.181 15.7422 108.957 16.6276 112.264 18.3984C115.571 20.1693 118.162 22.7474 120.037 26.1328C121.939 29.5182 122.889 33.6589 122.889 38.5547ZM94.2172 38.5547C94.2172 41.0807 94.4385 43.2161 94.8812 44.9609C95.324 46.6797 96.0271 47.9948 96.9906 48.9062C97.9802 49.7917 99.2693 50.2344 100.858 50.2344C102.446 50.2344 103.709 49.7917 104.647 48.9062C105.584 47.9948 106.261 46.6797 106.678 44.9609C107.121 43.2161 107.342 41.0807 107.342 38.5547C107.342 36.0286 107.121 33.9193 106.678 32.2266C106.261 30.5339 105.571 29.2578 104.608 28.3984C103.67 27.5391 102.394 27.1094 100.78 27.1094C98.462 27.1094 96.7823 28.0729 95.7406 30C94.725 31.9271 94.2172 34.7786 94.2172 38.5547ZM165.33 47.1875C165.33 50 164.705 52.487 163.455 54.6484C162.205 56.8099 160.199 58.5026 157.439 59.7266C154.705 60.9505 151.098 61.5625 146.619 61.5625C143.468 61.5625 140.642 61.3932 138.142 61.0547C135.668 60.7161 133.155 60.0651 130.603 59.1016V46.875C133.39 48.151 136.228 49.0755 139.119 49.6484C142.009 50.1953 144.288 50.4688 145.955 50.4688C147.673 50.4688 148.923 50.2865 149.705 49.9219C150.512 49.5312 150.916 48.9583 150.916 48.2031C150.916 47.5521 150.642 47.0052 150.095 46.5625C149.574 46.0938 148.624 45.5599 147.244 44.9609C145.89 44.362 143.976 43.5547 141.502 42.5391C139.054 41.5234 137.009 40.4167 135.369 39.2188C133.754 38.0208 132.543 36.5885 131.736 34.9219C130.929 33.2552 130.525 31.2109 130.525 28.7891C130.525 24.4661 132.192 21.2109 135.525 19.0234C138.858 16.8359 143.272 15.7422 148.767 15.7422C151.684 15.7422 154.431 16.0677 157.009 16.7188C159.587 17.3438 162.257 18.2682 165.017 19.4922L160.837 29.3359C158.65 28.3464 156.436 27.5521 154.197 26.9531C151.957 26.3542 150.173 26.0547 148.845 26.0547C147.647 26.0547 146.723 26.2109 146.072 26.5234C145.421 26.8359 145.095 27.2917 145.095 27.8906C145.095 28.4375 145.317 28.9193 145.759 29.3359C146.228 29.7526 147.101 30.2344 148.377 30.7812C149.653 31.3281 151.515 32.0964 153.962 33.0859C156.541 34.1276 158.663 35.2474 160.33 36.4453C162.022 37.6172 163.272 39.0495 164.08 40.7422C164.913 42.4349 165.33 44.5833 165.33 47.1875ZM194.567 15.7422C198.864 15.7422 202.575 16.4974 205.7 18.0078C208.825 19.4922 211.234 21.7318 212.927 24.7266C214.619 27.7214 215.466 31.4714 215.466 35.9766V42.7734H188.161C188.291 45.0911 189.151 46.9922 190.739 48.4766C192.354 49.9609 194.723 50.7031 197.848 50.7031C200.609 50.7031 203.135 50.4297 205.427 49.8828C207.744 49.3359 210.127 48.4896 212.575 47.3438V58.3203C210.44 59.4401 208.109 60.2604 205.583 60.7812C203.057 61.3021 199.867 61.5625 196.012 61.5625C191.559 61.5625 187.575 60.7682 184.059 59.1797C180.544 57.5911 177.77 55.1302 175.739 51.7969C173.734 48.4635 172.731 44.1797 172.731 38.9453C172.731 33.6328 173.643 29.2708 175.466 25.8594C177.289 22.4219 179.841 19.8828 183.122 18.2422C186.403 16.5755 190.218 15.7422 194.567 15.7422ZM195.114 26.1328C193.317 26.1328 191.807 26.7057 190.583 27.8516C189.385 28.9714 188.682 30.7422 188.473 33.1641H201.598C201.572 31.862 201.312 30.6771 200.817 29.6094C200.322 28.5417 199.593 27.6953 198.63 27.0703C197.692 26.4453 196.52 26.1328 195.114 26.1328ZM260.836 60.7812L258.023 50.0781H239.469L236.578 60.7812H219.625L238.258 3.4375H258.844L277.711 60.7812H260.836ZM254.82 37.4219L252.359 28.0469C252.099 27.0312 251.721 25.5859 251.227 23.7109C250.732 21.8099 250.237 19.8568 249.742 17.8516C249.273 15.8203 248.909 14.1536 248.648 12.8516C248.414 14.1536 248.076 15.7682 247.633 17.6953C247.216 19.5964 246.773 21.4844 246.305 23.3594C245.862 25.2344 245.471 26.7969 245.133 28.0469L242.672 37.4219H254.82ZM284.722 60.7812V3.67188H300.23V60.7812H284.722Z" fill="black"/>
</svg>
