<svg width="300" height="104" viewBox="0 0 300 104" fill="none" xmlns="http://www.w3.org/2000/svg">
<path d="M6.01562 30.4297H30.0781C39.375 30.4297 46.7188 32.9818 52.1094 38.0859C57.526 43.1641 60.2344 49.7396 60.2344 57.8125C60.2344 66.276 57.487 72.9297 51.9922 77.7734C46.5234 82.5911 38.7109 85 28.5547 85H6.01562V30.4297ZM19.6094 40.4297V75H28.4766C34.2318 75 38.6328 73.4245 41.6797 70.2734C44.7266 67.0964 46.25 62.9167 46.25 57.7344C46.25 52.3698 44.7005 48.151 41.6016 45.0781C38.5286 41.9792 34.1016 40.4297 28.3203 40.4297H19.6094ZM99.5703 50.6641L117.109 30.4297H128.945V85H115.352V50.9375L100.625 68.0469H98.5547L83.8281 50.9375V85H70.2344V30.4297H82.0703L99.5703 50.6641ZM172.93 30.4297L197.148 85H182.539L178.047 74.2188H153.633L149.57 85H135.156L157.148 30.4297H172.93ZM174.023 64.6875L165.234 43.4766L157.227 64.6875H174.023Z" fill="black"/>
<path d="M225.309 81.0953C222.08 81.6661 219.186 79.0276 219.455 75.7603L221.768 47.7444C221.982 45.1513 224.183 43.1558 226.785 43.1558C229.261 43.1558 231.189 45.3045 230.923 47.7663L228.955 65.9442C228.584 69.3681 231.705 72.1329 235.059 71.3521L252.974 67.182C255.283 66.6445 257.491 68.3973 257.491 70.768L257.491 71.2119C257.491 73.6375 255.75 75.7133 253.362 76.1356L225.309 81.0953Z" fill="#009A66"/>
<path d="M263.173 28.0075C267.784 27.8099 271.606 31.5446 271.514 36.1593L270.655 79.3092C270.588 82.6955 267.824 85.4055 264.437 85.4055C260.94 85.4055 258.13 82.5236 258.219 79.0277L258.986 48.7842C259.104 44.1154 255.215 40.3382 250.552 40.5932L220.454 42.239C216.906 42.433 213.922 39.6077 213.922 36.0536C213.922 32.7356 216.536 30.0068 219.851 29.8647L263.173 28.0075Z" fill="#009A66"/>
</svg>
