<svg width="324" height="77" viewBox="0 0 324 77" fill="none" xmlns="http://www.w3.org/2000/svg">
<path d="M40.4545 19.3748C39.9811 17.8407 39.3277 16.4676 38.4943 15.2555C37.6799 14.0244 36.6951 12.9733 35.5398 12.1021C34.4034 11.2308 33.0966 10.5774 31.6193 10.1418C30.142 9.68728 28.5322 9.46001 26.7898 9.46001C23.6648 9.46001 20.8807 10.246 18.4375 11.818C15.9943 13.3899 14.072 15.7005 12.6705 18.7498C11.2879 21.7801 10.5966 25.4733 10.5966 29.8293C10.5966 34.2233 11.2879 37.9449 12.6705 40.9941C14.053 44.0433 15.9754 46.3634 18.4375 47.9543C20.8996 49.5263 23.7595 50.3123 27.017 50.3123C29.9716 50.3123 32.5284 49.7441 34.6875 48.6077C36.8655 47.4714 38.5417 45.8615 39.7159 43.7782C40.8902 41.6759 41.4773 39.2138 41.4773 36.3918L43.8636 36.7611H28.0682V28.5225H51.6761V35.5111C51.6761 40.4922 50.6155 44.8009 48.4943 48.4373C46.3731 52.0736 43.4564 54.8767 39.7443 56.8464C36.0322 58.7971 31.7708 59.7725 26.9602 59.7725C21.6004 59.7725 16.8939 58.5699 12.8409 56.1646C8.80681 53.7403 5.6534 50.3028 3.38068 45.8521C1.12689 41.3824 -4.05312e-06 36.0793 -4.05312e-06 29.943C-4.05312e-06 25.246 0.662875 21.0509 1.98863 17.3577C3.33333 13.6646 5.20833 10.5301 7.61363 7.95432C10.0189 5.35962 12.8409 3.38993 16.0795 2.04523C19.3182 0.681594 22.8409 -0.000224113 26.6477 -0.000224113C29.8674 -0.000224113 32.8693 0.473261 35.6534 1.42023C38.4375 2.34826 40.9091 3.67402 43.0682 5.39751C45.2462 7.12099 47.036 9.16644 48.4375 11.5339C49.839 13.9013 50.7576 16.5149 51.1932 19.3748H40.4545ZM273.041 0.795231V58.9771H262.757V0.795231H273.041Z" fill="#FF5F00"/>
<path d="M81.2474 59.8293C76.9861 59.8293 73.2929 58.8918 70.1679 57.0168C67.0429 55.1418 64.6187 52.5187 62.8952 49.1475C61.1906 45.7763 60.3383 41.8369 60.3383 37.3293C60.3383 32.8217 61.1906 28.8729 62.8952 25.4827C64.6187 22.0926 67.0429 19.46 70.1679 17.585C73.2929 15.71 76.9861 14.7725 81.2474 14.7725C85.5088 14.7725 89.202 15.71 92.327 17.585C95.452 19.46 97.8668 22.0926 99.5713 25.4827C101.295 28.8729 102.157 32.8217 102.157 37.3293C102.157 41.8369 101.295 45.7763 99.5713 49.1475C97.8668 52.5187 95.452 55.1418 92.327 57.0168C89.202 58.8918 85.5088 59.8293 81.2474 59.8293ZM81.3043 51.5907C83.6149 51.5907 85.5467 50.9562 87.0997 49.6873C88.6527 48.3994 89.808 46.6759 90.5656 44.5168C91.3421 42.3577 91.7304 39.9524 91.7304 37.3009C91.7304 34.6305 91.3421 32.2157 90.5656 30.0566C89.808 27.8786 88.6527 26.1456 87.0997 24.8577C85.5467 23.5699 83.6149 22.9259 81.3043 22.9259C78.9368 22.9259 76.9671 23.5699 75.3952 24.8577C73.8421 26.1456 72.6774 27.8786 71.9008 30.0566C71.1433 32.2157 70.7645 34.6305 70.7645 37.3009C70.7645 39.9524 71.1433 42.3577 71.9008 44.5168C72.6774 46.6759 73.8421 48.3994 75.3952 49.6873C76.9671 50.9562 78.9368 51.5907 81.3043 51.5907ZM230.934 76.2498C227.241 76.2498 224.069 75.7479 221.417 74.7441C218.766 73.7592 216.635 72.4335 215.025 70.7668C213.415 69.1002 212.298 67.2536 211.673 65.2271L220.934 62.9827C221.351 63.835 221.957 64.6778 222.753 65.5111C223.548 66.3634 224.618 67.0642 225.963 67.6134C227.326 68.1816 229.04 68.4657 231.105 68.4657C234.021 68.4657 236.436 67.7555 238.349 66.335C240.262 64.9335 241.218 62.6229 241.218 59.4032V51.1361H240.707C240.177 52.1967 239.4 53.2858 238.378 54.4032C237.374 55.5206 236.039 56.4581 234.372 57.2157C232.724 57.9733 230.65 58.3521 228.15 58.3521C224.798 58.3521 221.758 57.5661 219.031 55.9941C216.323 54.4032 214.164 52.0358 212.554 48.8918C210.963 45.7289 210.167 41.7706 210.167 37.0168C210.167 32.2252 210.963 28.1816 212.554 24.8861C214.164 21.5717 216.332 19.0623 219.059 17.3577C221.787 15.6342 224.826 14.7725 228.179 14.7725C230.736 14.7725 232.838 15.2081 234.486 16.0793C236.152 16.9316 237.478 17.9638 238.463 19.1759C239.448 20.3691 240.196 21.496 240.707 22.5566H241.275V15.3407H251.417V59.6873C251.417 63.4183 250.527 66.5055 248.747 68.9486C246.967 71.3918 244.533 73.2195 241.446 74.4316C238.359 75.6437 234.855 76.2498 230.934 76.2498ZM231.02 50.2839C233.198 50.2839 235.054 49.7536 236.588 48.693C238.122 47.6324 239.287 46.1077 240.082 44.1191C240.878 42.1305 241.275 39.7441 241.275 36.96C241.275 34.2138 240.878 31.8085 240.082 29.7441C239.306 27.6797 238.15 26.0793 236.616 24.943C235.101 23.7877 233.236 23.21 231.02 23.21C228.728 23.21 226.815 23.8066 225.281 24.9998C223.747 26.193 222.592 27.8312 221.815 29.9146C221.039 31.9789 220.65 34.3274 220.65 36.96C220.65 39.6305 221.039 41.9695 221.815 43.9771C222.611 45.9657 223.775 47.5187 225.309 48.6361C226.862 49.7346 228.766 50.2839 231.02 50.2839Z" fill="#FFCF3F"/>
<path d="M130.719 59.8293C126.458 59.8293 122.765 58.8918 119.64 57.0168C116.515 55.1418 114.091 52.5187 112.367 49.1475C110.662 45.7763 109.81 41.8369 109.81 37.3293C109.81 32.8217 110.662 28.8729 112.367 25.4827C114.091 22.0926 116.515 19.46 119.64 17.585C122.765 15.71 126.458 14.7725 130.719 14.7725C134.981 14.7725 138.674 15.71 141.799 17.585C144.924 19.46 147.339 22.0926 149.043 25.4827C150.767 28.8729 151.628 32.8217 151.628 37.3293C151.628 41.8369 150.767 45.7763 149.043 49.1475C147.339 52.5187 144.924 55.1418 141.799 57.0168C138.674 58.8918 134.981 59.8293 130.719 59.8293ZM130.776 51.5907C133.087 51.5907 135.019 50.9562 136.572 49.6873C138.125 48.3994 139.28 46.6759 140.037 44.5168C140.814 42.3577 141.202 39.9524 141.202 37.3009C141.202 34.6305 140.814 32.2157 140.037 30.0566C139.28 27.8786 138.125 26.1456 136.572 24.8577C135.019 23.5699 133.087 22.9259 130.776 22.9259C128.409 22.9259 126.439 23.5699 124.867 24.8577C123.314 26.1456 122.149 27.8786 121.373 30.0566C120.615 32.2157 120.236 34.6305 120.236 37.3009C120.236 39.9524 120.615 42.3577 121.373 44.5168C122.149 46.6759 123.314 48.3994 124.867 49.6873C126.439 50.9562 128.409 51.5907 130.776 51.5907Z" fill="#6D8BEB"/>
<path d="M180.134 76.2498C176.441 76.2498 173.269 75.7479 170.617 74.7441C167.966 73.7592 165.835 72.4335 164.225 70.7668C162.615 69.1002 161.498 67.2536 160.873 65.2271L170.134 62.9827C170.551 63.835 171.157 64.6778 171.953 65.5111C172.748 66.3634 173.818 67.0642 175.163 67.6134C176.526 68.1816 178.24 68.4657 180.305 68.4657C183.221 68.4657 185.636 67.7555 187.549 66.335C189.462 64.9335 190.418 62.6229 190.418 59.4032V51.1361H189.907C189.377 52.1967 188.6 53.2858 187.578 54.4032C186.574 55.5206 185.239 56.4581 183.572 57.2157C181.924 57.9733 179.85 58.3521 177.35 58.3521C173.998 58.3521 170.958 57.5661 168.231 55.9941C165.523 54.4032 163.364 52.0358 161.754 48.8918C160.163 45.7289 159.367 41.7706 159.367 37.0168C159.367 32.2252 160.163 28.1816 161.754 24.8861C163.364 21.5717 165.532 19.0623 168.259 17.3577C170.987 15.6342 174.026 14.7725 177.379 14.7725C179.936 14.7725 182.038 15.2081 183.686 16.0793C185.352 16.9316 186.678 17.9638 187.663 19.1759C188.648 20.3691 189.396 21.496 189.907 22.5566H190.475V15.3407H200.617V59.6873C200.617 63.4183 199.727 66.5055 197.947 68.9486C196.167 71.3918 193.733 73.2195 190.646 74.4316C187.559 75.6437 184.055 76.2498 180.134 76.2498ZM180.22 50.2839C182.398 50.2839 184.254 49.7536 185.788 48.693C187.322 47.6324 188.487 46.1077 189.282 44.1191C190.078 42.1305 190.475 39.7441 190.475 36.96C190.475 34.2138 190.078 31.8085 189.282 29.7441C188.506 27.6797 187.35 26.0793 185.816 24.943C184.301 23.7877 182.436 23.21 180.22 23.21C177.928 23.21 176.015 23.8066 174.481 24.9998C172.947 26.193 171.792 27.8312 171.015 29.9146C170.239 31.9789 169.85 34.3274 169.85 36.96C169.85 39.6305 170.239 41.9695 171.015 43.9771C171.811 45.9657 172.975 47.5187 174.509 48.6361C176.062 49.7346 177.966 50.2839 180.22 50.2839Z" fill="#46D836"/>
<path d="M303.735 59.8293C299.36 59.8293 295.581 58.9202 292.399 57.1021C289.237 55.2649 286.803 52.6702 285.098 49.318C283.394 45.9467 282.541 41.9789 282.541 37.4146C282.541 32.9259 283.394 28.9865 285.098 25.5964C286.822 22.1873 289.227 19.5358 292.314 17.6418C295.401 15.7289 299.028 14.7725 303.195 14.7725C305.884 14.7725 308.422 15.2081 310.809 16.0793C313.214 16.9316 315.335 18.2574 317.172 20.0566C319.028 21.8558 320.487 24.1475 321.547 26.9316C322.608 29.6967 323.138 32.9922 323.138 36.818V39.9714H287.371V33.0396H313.28C313.261 31.0699 312.835 29.318 312.002 27.7839C311.168 26.2308 310.004 25.0092 308.507 24.1191C307.03 23.2289 305.307 22.7839 303.337 22.7839C301.235 22.7839 299.388 23.2952 297.797 24.318C296.206 25.3217 294.966 26.6475 294.076 28.2952C293.204 29.924 292.759 31.7138 292.74 33.6646V39.7157C292.74 42.2536 293.204 44.4316 294.132 46.2498C295.06 48.049 296.358 49.4316 298.024 50.3975C299.691 51.3445 301.642 51.818 303.877 51.818C305.373 51.818 306.727 51.6096 307.939 51.193C309.151 50.7574 310.202 50.1229 311.093 49.2896C311.983 48.4562 312.655 47.424 313.11 46.193L322.712 47.2725C322.106 49.8104 320.951 52.0263 319.246 53.9202C317.56 55.7952 315.401 57.2536 312.769 58.2952C310.136 59.318 307.125 59.8293 303.735 59.8293Z" fill="#6D8BEB"/>
</svg>
