<svg width="296" height="62" viewBox="0 0 296 62" fill="none" xmlns="http://www.w3.org/2000/svg">
<path d="M41.4 60.4001C39.4667 60.4001 37.8 59.8334 36.4 58.7001C35.0667 57.5001 34.4 56.0668 34.4 54.4001V23.0001C34.4 21.6668 34.0667 20.2001 33.4 18.6001C32.7333 17.0001 31.5667 15.6334 29.9 14.5001C28.2333 13.3668 26.3667 12.8001 24.3 12.8001C23.0333 12.8001 21.6 13.1334 20 13.8001C18.4 14.4668 17.0333 15.6668 15.9 17.4001C14.7667 19.0668 14.2 20.9334 14.2 23.0001V54.4001C14.2 56.0668 13.4667 57.5001 12 58.7001C10.6 59.8334 8.93333 60.4001 7 60.4001C5.06667 60.4001 3.4 59.8334 2 58.7001C0.666667 57.5001 2.38419e-07 56.0668 2.38419e-07 54.4001V6.9001C2.38419e-07 5.23343 0.666667 3.83343 2 2.7001C3.4 1.5001 5.06667 0.900096 7 0.900096C8.93333 0.900096 10.6 1.5001 12 2.7001C13.4667 3.83343 14.2 5.23343 14.2 6.9001V10.6001H14.4C16.5333 6.73343 18.8333 4.00009 21.3 2.40009C23.7667 0.800096 26.2333 9.60827e-05 28.7 9.60827e-05C32.5667 9.60827e-05 35.8333 1.06676 38.5 3.2001C41.2333 5.26676 43.2667 7.86676 44.6 11.0001C45.4667 9.00009 46.8667 7.06676 48.8 5.20009C50.8 3.33343 52.9 2.00009 55.1 1.20009C57.3667 0.400095 59.4 9.60827e-05 61.2 9.60827e-05C67.8667 9.60827e-05 73.1667 2.13343 77.1 6.4001C81.0333 10.6001 83 16.2001 83 23.2001V54.4001C83 56.0668 82.2667 57.5001 80.8 58.7001C79.4 59.8334 77.7333 60.4001 75.8 60.4001C73.8667 60.4001 72.2 59.8334 70.8 58.7001C69.4667 57.5001 68.8 56.0668 68.8 54.4001V23.0001C68.8 21.6668 68.4667 20.2001 67.8 18.6001C67.1333 17.0001 65.9667 15.6334 64.3 14.5001C62.6333 13.3668 60.7667 12.8001 58.7 12.8001C57.4333 12.8001 56 13.1334 54.4 13.8001C52.8 14.4668 51.4333 15.6668 50.3 17.4001C49.1667 19.0668 48.6 20.9334 48.6 23.0001V54.4001C48.6 56.0668 47.8667 57.5001 46.4 58.7001C45 59.8334 43.3333 60.4001 41.4 60.4001ZM146.22 30.6001C146.22 28.2668 145.753 26.0001 144.82 23.8001C143.953 21.6001 142.686 19.7001 141.02 18.1001C139.42 16.4334 137.52 15.1334 135.32 14.2001C133.186 13.2668 130.92 12.8001 128.52 12.8001C126.786 12.8001 124.92 13.1334 122.92 13.8001C120.986 14.4001 119.12 15.4334 117.32 16.9001C115.52 18.3668 113.986 20.3001 112.72 22.7001C111.453 25.0334 110.82 27.6668 110.82 30.6001C110.82 35.4668 112.553 39.6668 116.02 43.2001C119.553 46.7334 123.72 48.5001 128.52 48.5001C130.32 48.5001 132.186 48.2001 134.12 47.6001C136.12 46.9334 138.12 45.7668 140.12 44.1001C142.12 42.4334 143.62 40.3668 144.62 37.9001C145.686 35.4334 146.22 33.0001 146.22 30.6001ZM161.02 30.6001C161.02 34.8001 160.153 38.8001 158.42 42.6001C156.686 46.4001 154.286 49.7001 151.22 52.5001C148.153 55.3001 144.653 57.4668 140.72 59.0001C136.786 60.5334 132.72 61.3001 128.52 61.3001C126.52 61.3001 124.186 61.0334 121.52 60.5001C118.92 60.0334 116.22 59.1001 113.42 57.7001C110.62 56.3001 107.886 54.4001 105.22 52.0001C102.62 49.5334 100.42 46.4001 98.6195 42.6001C96.8862 38.8001 96.0195 34.8001 96.0195 30.6001C96.0195 26.4001 96.8862 22.4334 98.6195 18.7001C100.42 14.9001 102.62 11.8001 105.22 9.40009C107.886 6.93343 110.62 5.0001 113.42 3.6001C116.22 2.2001 118.92 1.26676 121.52 0.800098C124.186 0.266763 126.52 9.60827e-05 128.52 9.60827e-05C132.72 9.60827e-05 136.786 0.766763 140.72 2.3001C144.653 3.83343 148.153 6.0001 151.22 8.8001C154.286 11.6001 156.686 14.9001 158.42 18.7001C160.153 22.4334 161.02 26.4001 161.02 30.6001ZM221.29 30.6001C221.29 28.2668 220.823 26.0001 219.89 23.8001C219.023 21.6001 217.757 19.7001 216.09 18.1001C214.49 16.4334 212.59 15.1334 210.39 14.2001C208.257 13.2668 205.99 12.8001 203.59 12.8001C201.857 12.8001 199.99 13.1334 197.99 13.8001C196.057 14.4001 194.19 15.4334 192.39 16.9001C190.59 18.3668 189.057 20.3001 187.79 22.7001C186.523 25.0334 185.89 27.6668 185.89 30.6001C185.89 35.4668 187.623 39.6668 191.09 43.2001C194.623 46.7334 198.79 48.5001 203.59 48.5001C205.39 48.5001 207.257 48.2001 209.19 47.6001C211.19 46.9334 213.19 45.7668 215.19 44.1001C217.19 42.4334 218.69 40.3668 219.69 37.9001C220.757 35.4334 221.29 33.0001 221.29 30.6001ZM236.09 30.6001C236.09 34.8001 235.223 38.8001 233.49 42.6001C231.757 46.4001 229.357 49.7001 226.29 52.5001C223.223 55.3001 219.723 57.4668 215.79 59.0001C211.857 60.5334 207.79 61.3001 203.59 61.3001C201.59 61.3001 199.257 61.0334 196.59 60.5001C193.99 60.0334 191.29 59.1001 188.49 57.7001C185.69 56.3001 182.957 54.4001 180.29 52.0001C177.69 49.5334 175.49 46.4001 173.69 42.6001C171.957 38.8001 171.09 34.8001 171.09 30.6001C171.09 26.4001 171.957 22.4334 173.69 18.7001C175.49 14.9001 177.69 11.8001 180.29 9.40009C182.957 6.93343 185.69 5.0001 188.49 3.6001C191.29 2.2001 193.99 1.26676 196.59 0.800098C199.257 0.266763 201.59 9.60827e-05 203.59 9.60827e-05C207.79 9.60827e-05 211.857 0.766763 215.79 2.3001C219.723 3.83343 223.223 6.0001 226.29 8.8001C229.357 11.6001 231.757 14.9001 233.49 18.7001C235.223 22.4334 236.09 26.4001 236.09 30.6001ZM295.295 53.3001C295.295 54.9668 294.762 56.4334 293.695 57.7001C292.629 58.9668 291.395 59.6001 289.995 59.6001H249.195C247.729 59.6001 246.429 58.9668 245.295 57.7001C244.229 56.4334 243.695 54.9668 243.695 53.3001C243.695 51.5668 244.362 49.9668 245.695 48.5001L273.695 14.5001V14.3001H248.995C247.595 14.3001 246.362 13.7001 245.295 12.5001C244.229 11.2334 243.695 9.73343 243.695 8.00009C243.695 6.33343 244.229 4.86676 245.295 3.6001C246.362 2.33343 247.595 1.70009 248.995 1.70009H289.795C291.195 1.70009 292.429 2.33343 293.495 3.6001C294.562 4.86676 295.095 6.33343 295.095 8.00009C295.095 9.86676 294.495 11.4668 293.295 12.8001L265.295 46.8001V47.0001H289.995C291.395 47.0001 292.629 47.6334 293.695 48.9001C294.762 50.1001 295.295 51.5668 295.295 53.3001Z" fill="#2D8CFF"/>
</svg>
