<svg width="328" height="95" viewBox="0 0 328 95" fill="none" xmlns="http://www.w3.org/2000/svg">
<path d="M48.25 34.6C45.179 34.6 42.7 32.121 42.7 29.05V10.55C42.7 7.479 45.179 5 48.25 5C51.321 5 53.8 7.479 53.8 10.55V29.05C53.8 32.121 51.321 34.6 48.25 34.6Z" stroke="#1E1E1E" stroke-width="4" stroke-linecap="round" stroke-linejoin="round"/>
<path d="M70.45 34.6H64.9V29.05C64.9 25.979 67.379 23.5 70.45 23.5C73.521 23.5 76 25.979 76 29.05C76 32.121 73.521 34.6 70.45 34.6Z" stroke="#1E1E1E" stroke-width="4" stroke-linecap="round" stroke-linejoin="round"/>
<path d="M29.75 49.4C32.821 49.4 35.3 51.879 35.3 54.95V73.45C35.3 76.521 32.821 79 29.75 79C26.679 79 24.2 76.521 24.2 73.45V54.95C24.2 51.879 26.679 49.4 29.75 49.4Z" stroke="#1E1E1E" stroke-width="4" stroke-linecap="round" stroke-linejoin="round"/>
<path d="M7.55 49.4H13.1V54.95C13.1 58.021 10.621 60.5 7.55 60.5C4.479 60.5 2 58.021 2 54.95C2 51.879 4.479 49.4 7.55 49.4Z" stroke="#1E1E1E" stroke-width="4" stroke-linecap="round" stroke-linejoin="round"/>
<path d="M46.4 51.25C46.4 48.179 48.879 45.7 51.95 45.7H70.45C73.521 45.7 76 48.179 76 51.25C76 54.321 73.521 56.8 70.45 56.8H51.95C48.879 56.8 46.4 54.321 46.4 51.25Z" stroke="#1E1E1E" stroke-width="4" stroke-linecap="round" stroke-linejoin="round"/>
<path d="M51.95 67.9H46.4V73.45C46.4 76.521 48.879 79 51.95 79C55.021 79 57.5 76.521 57.5 73.45C57.5 70.379 55.021 67.9 51.95 67.9Z" stroke="#1E1E1E" stroke-width="4" stroke-linecap="round" stroke-linejoin="round"/>
<path d="M31.6 32.75C31.6 29.679 29.121 27.2 26.05 27.2H7.55C4.479 27.2 2 29.679 2 32.75C2 35.821 4.479 38.3 7.55 38.3H26.05C29.121 38.3 31.6 35.821 31.6 32.75Z" stroke="#1E1E1E" stroke-width="4" stroke-linecap="round" stroke-linejoin="round"/>
<path d="M26.05 16.1H31.6V10.55C31.6 7.479 29.121 5 26.05 5C22.979 5 20.5 7.479 20.5 10.55C20.5 13.621 22.979 16.1 26.05 16.1Z" stroke="#1E1E1E" stroke-width="4" stroke-linecap="round" stroke-linejoin="round"/>
<path d="M127.016 77.0156C122.328 77.0156 118.253 76.3516 114.789 75.0234C111.352 73.6693 108.656 71.7292 106.703 69.2031C104.776 66.6771 103.695 63.6172 103.461 60.0234L103.422 59.3203H116.742L116.82 59.7109C117.081 60.9349 117.68 62.0026 118.617 62.9141C119.581 63.7995 120.805 64.5026 122.289 65.0234C123.773 65.5182 125.427 65.7656 127.25 65.7656C129.151 65.7656 130.779 65.5182 132.133 65.0234C133.513 64.5026 134.581 63.7995 135.336 62.9141C136.091 62.0286 136.469 61 136.469 59.8281V59.7891C136.469 58.2005 135.779 56.9766 134.398 56.1172C133.018 55.2318 130.674 54.4766 127.367 53.8516L121.586 52.7188C116.013 51.6771 111.768 49.8021 108.852 47.0938C105.961 44.3594 104.516 40.8307 104.516 36.5078V36.4688C104.516 32.849 105.479 29.7109 107.406 27.0547C109.333 24.3724 111.977 22.3021 115.336 20.8438C118.721 19.3594 122.562 18.6172 126.859 18.6172C131.573 18.6172 135.583 19.3203 138.891 20.7266C142.198 22.1068 144.75 24.0599 146.547 26.5859C148.37 29.112 149.359 32.0807 149.516 35.4922L149.555 36.3125H136.234L136.195 35.8828C136.039 34.6328 135.557 33.5651 134.75 32.6797C133.943 31.7943 132.875 31.1042 131.547 30.6094C130.219 30.1146 128.695 29.8672 126.977 29.8672C125.232 29.8672 123.747 30.1146 122.523 30.6094C121.299 31.1042 120.362 31.7812 119.711 32.6406C119.086 33.474 118.773 34.4245 118.773 35.4922V35.5312C118.773 37.0417 119.464 38.2396 120.844 39.125C122.224 40.0104 124.424 40.7396 127.445 41.3125L133.227 42.4062C137.237 43.1615 140.531 44.2292 143.109 45.6094C145.688 46.9896 147.602 48.7474 148.852 50.8828C150.102 52.9922 150.727 55.5573 150.727 58.5781V58.6172C150.727 62.3672 149.789 65.6224 147.914 68.3828C146.039 71.1432 143.331 73.2786 139.789 74.7891C136.247 76.2734 131.99 77.0156 127.016 77.0156ZM176.506 76.8984C171.376 76.8984 167.587 75.8828 165.139 73.8516C162.717 71.7943 161.506 68.3698 161.506 63.5781V43.6172H155.725V33.4609H161.506V23.6562H175.412V33.4609H183.03V43.6172H175.412V61.7031C175.412 63.526 175.829 64.8281 176.662 65.6094C177.496 66.3646 178.746 66.7422 180.412 66.7422C180.985 66.7422 181.467 66.7292 181.858 66.7031C182.248 66.651 182.639 66.599 183.03 66.5469V76.3906C182.274 76.5208 181.363 76.638 180.295 76.7422C179.228 76.8464 177.965 76.8984 176.506 76.8984ZM202.95 76.5859C200.111 76.5859 197.611 76.0391 195.45 74.9453C193.289 73.8255 191.596 72.3021 190.372 70.375C189.174 68.4219 188.575 66.2083 188.575 63.7344V63.6953C188.575 61.013 189.239 58.7344 190.567 56.8594C191.921 54.9844 193.874 53.513 196.427 52.4453C198.979 51.3516 202.078 50.6875 205.723 50.4531L222.755 49.3594V57.4062L207.95 58.4219C206.023 58.526 204.578 58.9688 203.614 59.75C202.651 60.5052 202.169 61.5208 202.169 62.7969V62.8359C202.169 64.1641 202.677 65.1927 203.692 65.9219C204.734 66.625 206.101 66.9766 207.794 66.9766C209.278 66.9766 210.58 66.7161 211.7 66.1953C212.846 65.6484 213.744 64.9062 214.395 63.9688C215.072 63.0052 215.411 61.9375 215.411 60.7656V47.7188C215.411 46.1823 214.916 44.9714 213.927 44.0859C212.937 43.1745 211.492 42.7188 209.591 42.7188C207.716 42.7188 206.244 43.0964 205.177 43.8516C204.109 44.6068 203.458 45.5312 203.223 46.625L203.145 47.0156H190.645L190.684 46.5078C190.919 43.7214 191.83 41.2865 193.419 39.2031C195.007 37.1198 197.221 35.4922 200.059 34.3203C202.924 33.1484 206.335 32.5625 210.294 32.5625C214.096 32.5625 217.416 33.1615 220.255 34.3594C223.119 35.5573 225.333 37.237 226.895 39.3984C228.484 41.5599 229.278 44.0729 229.278 46.9375V76H215.411V69.9844H215.137C214.33 71.3646 213.328 72.5495 212.13 73.5391C210.932 74.5286 209.565 75.2839 208.028 75.8047C206.492 76.3255 204.799 76.5859 202.95 76.5859ZM257.831 76.8984C253.378 76.8984 249.524 76.013 246.269 74.2422C243.04 72.4453 240.553 69.8932 238.808 66.5859C237.063 63.2526 236.191 59.2812 236.191 54.6719V54.6328C236.191 50.0755 237.063 46.1432 238.808 42.8359C240.579 39.5286 243.066 36.9896 246.269 35.2188C249.498 33.4479 253.313 32.5625 257.714 32.5625C261.724 32.5625 265.227 33.3047 268.222 34.7891C271.217 36.2474 273.547 38.2786 275.214 40.8828C276.881 43.487 277.753 46.4818 277.831 49.8672V50.1406H265.097L265.058 49.75C264.797 47.7969 264.055 46.1953 262.831 44.9453C261.607 43.6953 259.98 43.0703 257.948 43.0703C256.36 43.0703 254.98 43.526 253.808 44.4375C252.662 45.349 251.777 46.6771 251.152 48.4219C250.553 50.1406 250.253 52.237 250.253 54.7109V54.75C250.253 57.224 250.553 59.3333 251.152 61.0781C251.777 62.8229 252.662 64.151 253.808 65.0625C254.98 65.9479 256.373 66.3906 257.988 66.3906C260.019 66.3906 261.633 65.7917 262.831 64.5938C264.055 63.3698 264.797 61.7422 265.058 59.7109L265.136 59.3203H277.87L277.831 59.5547C277.753 62.862 276.894 65.8177 275.253 68.4219C273.639 71.026 271.347 73.0964 268.378 74.6328C265.435 76.1432 261.92 76.8984 257.831 76.8984ZM284.861 76V19.6328H298.689V76H284.861ZM311.541 76L299.978 57.9922L308.611 47.0938L327.517 76H311.541ZM297.4 64.5156V49.5938H298.962L311.15 33.4609H326.58L307.244 56.9766H303.65L297.4 64.5156Z" fill="url(#paint0_linear_193_238)"/>
<defs>
<linearGradient id="paint0_linear_193_238" x1="352.411" y1="9" x2="131.564" y2="86.1103" gradientUnits="userSpaceOnUse">
<stop stop-color="#009A66"/>
<stop offset="0.349498" stop-color="#00A2E5"/>
<stop offset="1" stop-color="#874BF8"/>
</linearGradient>
</defs>
</svg>
