<svg width="111" height="38" viewBox="0 0 111 38" fill="none" xmlns="http://www.w3.org/2000/svg">
<path d="M13.32 9.20002C13.9867 9.78669 14.32 10.5467 14.32 11.48C14.32 12.4134 14.0133 13.1334 13.4 13.64C12.8133 14.1467 12.0533 14.3334 11.12 14.2C11.12 13.2134 10.7333 12.3867 9.96 11.72C9.18667 11.0267 8.32 10.68 7.36 10.68C6.42667 10.68 5.70667 10.8667 5.2 11.24C4.69333 11.5867 4.44 12.0534 4.44 12.64C4.44 13.2267 4.8 13.76 5.52 14.24C6.26667 14.6934 7.30667 15.1867 8.64 15.72C10 16.2534 10.9733 16.68 11.56 17C12.1467 17.2934 12.7733 17.6934 13.44 18.2C14.72 19.16 15.36 20.5867 15.36 22.48C15.36 24.3467 14.6 25.92 13.08 27.2C11.56 28.48 9.53333 29.12 7 29.12C5.13333 29.12 3.49333 28.7734 2.08 28.08C0.693333 27.3867 1.49012e-08 26.3467 1.49012e-08 24.96C1.49012e-08 24.0267 0.333333 23.3067 1 22.8C1.66667 22.2667 2.45333 22 3.36 22C3.70667 24.72 5.25333 26.08 8 26.08C10.2133 26.08 11.32 25.3467 11.32 23.88C11.32 22.92 10.7333 22.1467 9.56 21.56C8.92 21.2134 8.14667 20.8667 7.24 20.52C6.33333 20.1734 5.61333 19.88 5.08 19.64C4.57333 19.3734 4.01333 19.04 3.4 18.64C2.78667 18.24 2.28 17.8267 1.88 17.4C1 16.4134 0.56 15.2134 0.56 13.8C0.56 11.88 1.33333 10.3867 2.88 9.32002C4.42667 8.25335 6.28 7.72002 8.44 7.72002C10.6 7.72002 12.2267 8.21335 13.32 9.20002ZM25.0637 11.12V22.2C25.0637 24.36 25.7571 25.44 27.1438 25.44C28.1571 25.44 28.9971 25.3067 29.6638 25.04C30.3571 24.7734 31.0904 24.32 31.8638 23.68C31.9971 23.68 32.1704 23.8534 32.3838 24.2C32.5971 24.5467 32.7038 24.92 32.7038 25.32C32.7038 26.36 31.9704 27.2534 30.5038 28C29.0371 28.7467 27.6104 29.12 26.2238 29.12C24.8371 29.12 23.7437 28.92 22.9437 28.52C22.1437 28.1467 21.5437 27.5867 21.1437 26.84C20.5037 25.6134 20.1837 23.9867 20.1837 21.96V11.12H16.8637C16.8637 9.25335 17.5171 8.32002 18.8237 8.32002H20.1837V3.20002L25.0637 2.68002V8.32002H32.2638C32.3171 8.72002 32.2771 9.17335 32.1438 9.68002C31.9038 10.64 31.2904 11.12 30.3038 11.12H25.0637ZM42.47 11.24C43.11 10.3867 44.0167 9.58669 45.19 8.84002C46.39 8.09335 47.4167 7.72002 48.27 7.72002C49.15 7.72002 49.8833 8.00002 50.47 8.56002C51.0567 9.12002 51.35 10.0534 51.35 11.36C51.35 12.64 50.91 13.6667 50.03 14.44C49.5767 14.7867 48.8167 14.8934 47.75 14.76C47.75 13.88 47.67 13.2134 47.51 12.76C47.35 12.28 47.1767 12 46.99 11.92C46.8033 11.8134 46.55 11.76 46.23 11.76C44.8967 11.76 43.6967 12.6267 42.63 14.36V25.68L45.87 25.92C46.03 27.6534 45.43 28.52 44.07 28.52H34.83C34.83 28.52 34.83 28.4134 34.83 28.2C34.83 26.7334 35.4167 25.9467 36.59 25.84L37.75 25.76V11.44L35.99 11.24C35.1633 11.16 34.75 10.36 34.75 8.84002L41.99 7.92002L42.35 11.24H42.47ZM62.0406 28.52H53.1206V28.2C53.1206 26.7334 53.7073 25.9467 54.8806 25.84L56.1206 25.76V11.24L54.5606 11.08C53.4673 10.9734 52.974 10.1467 53.0806 8.60002L61.0006 7.72002V25.68L63.8406 25.92C64.0006 27.6534 63.4006 28.52 62.0406 28.52ZM61.2006 2.96002C61.2006 3.78668 60.9206 4.49335 60.3606 5.08002C59.8006 5.64002 59.094 5.92002 58.2406 5.92002C57.414 5.92002 56.7073 5.64002 56.1206 5.08002C55.5606 4.49335 55.2806 3.78668 55.2806 2.96002C55.2806 2.13335 55.5606 1.44002 56.1206 0.880018C56.7073 0.293351 57.414 1.71661e-05 58.2406 1.71661e-05C59.0673 1.71661e-05 59.7606 0.293351 60.3206 0.880018C60.9073 1.44002 61.2006 2.13335 61.2006 2.96002ZM88.4141 28.52H79.5741V28.2C79.5741 26.7334 80.1607 25.9467 81.3341 25.84L82.4941 25.76V15.92C82.4941 14.3734 82.1874 13.2934 81.5741 12.68C80.9607 12.04 80.1074 11.72 79.0141 11.72C77.9207 11.72 77.0274 11.8667 76.3341 12.16C75.6407 12.4534 74.9207 12.92 74.1741 13.56V25.68L77.0141 25.92C77.1741 27.6534 76.5741 28.52 75.2141 28.52H66.2941V28.2C66.2941 26.7334 66.8807 25.9467 68.0541 25.84L69.2941 25.76V11.48L67.7341 11.32C66.6407 11.2134 66.1474 10.3867 66.2541 8.84002L73.4941 7.96002L73.7741 10.4H73.8941C74.8807 9.54669 75.8274 8.89335 76.7341 8.44002C77.6674 7.96002 78.7607 7.72002 80.0141 7.72002C82.0674 7.72002 83.8007 8.41335 85.2141 9.80002C86.6541 11.16 87.3741 13.2667 87.3741 16.12V25.68L90.2141 25.92C90.3741 27.6534 89.7741 28.52 88.4141 28.52ZM100.271 22.68C99.604 22.68 98.9373 22.6134 98.2706 22.48C97.8973 23.1467 97.7106 23.6267 97.7106 23.92C97.7106 24.2134 98.0173 24.4134 98.6306 24.52C99.244 24.6 100.697 24.68 102.991 24.76C105.284 24.84 107.057 25.2534 108.311 26C109.591 26.72 110.231 27.9734 110.231 29.76C110.231 32.2134 109.284 34.1734 107.391 35.64C105.497 37.1067 103.164 37.84 100.391 37.84C97.644 37.84 95.5773 37.3334 94.1906 36.32C92.8306 35.3067 92.1506 34 92.1506 32.4C92.1506 30.8 92.924 29.28 94.4706 27.84C94.0706 27.36 93.8706 26.72 93.8706 25.92C93.8706 24.5067 94.5373 23.0267 95.8706 21.48C93.8173 20.1467 92.7906 18.12 92.7906 15.4C92.7906 13.1867 93.4973 11.36 94.9106 9.92002C96.3506 8.45335 98.2706 7.72002 100.671 7.72002C102.244 7.72002 103.631 8.04002 104.831 8.68002L110.191 7.24002C110.431 7.53335 110.564 8.08002 110.591 8.88002C110.617 9.68002 110.484 10.2134 110.191 10.48C109.791 10.6934 108.751 10.7734 107.071 10.72C107.844 11.8667 108.177 13.4667 108.071 15.52C107.964 17.5467 107.204 19.2534 105.791 20.64C104.377 22 102.537 22.68 100.271 22.68ZM106.831 31C106.831 30.3867 106.377 29.9867 105.471 29.8C104.564 29.6134 103.031 29.4667 100.871 29.36C98.7106 29.2534 97.324 29.1334 96.7106 29C96.044 29.8 95.7106 30.6134 95.7106 31.44C95.7106 32.2667 96.1373 32.9467 96.9906 33.48C97.844 34.0134 99.124 34.28 100.831 34.28C102.537 34.28 103.964 33.96 105.111 33.32C106.257 32.7067 106.831 31.9334 106.831 31ZM100.351 19.76C101.311 19.76 102.071 19.3734 102.631 18.6C103.191 17.8 103.471 16.6934 103.471 15.28C103.471 13.84 103.204 12.7334 102.671 11.96C102.137 11.16 101.377 10.76 100.391 10.76C99.404 10.76 98.644 11.16 98.1106 11.96C97.604 12.76 97.3506 13.88 97.3506 15.32C97.3506 18.28 98.3506 19.76 100.351 19.76Z" fill="#242526"/>
</svg>
